<svg style="object-fit:cover" id="my-svg" version="1" baseProfile="full" width="100%" height="100%" viewBox="0 0 1792 938" xmlns="http://www.w3.org/2000/svg"><rect width="1792" height="938" fill="#000000"/><defs><linearGradient id="linear-gradient" x1="0" x2="0" y1="1" y2="0"><stop offset="0%" stop-color="#d10e0050"/><stop offset="100%" stop-color="#2a3d9250"/></linearGradient></defs><path transform="scale(1, 1)" style="transform-origin:center" d="M 0,938 V 0,187 C 52.92502224924439,172.83868196357292 105.85004449848878,158.67736392714585 161,139 C 216.14995550151122,119.32263607285417 273.5248442552892,94.12922625498956 339,123 C 404.4751557447108,151.87077374501044 478.0505784803546,234.8057310528959 537,241 C 595.9494215196454,247.1942689471041 640.2728418232925,176.64784953342672 698,150 C 755.7271581767075,123.35215046657326 826.8580542264752,140.60287081339712 885,149 C 943.1419457735248,157.39712918660288 988.2949412708062,156.94066721298475 1047,154 C 1105.7050587291938,151.05933278701525 1177.9621806902992,145.6344603346639 1243,136 C 1308.0378193097008,126.3655396653361 1365.8563359679965,112.52149144835971 1433,117 C 1500.1436640320035,121.47850855164029 1576.6124754377154,144.27957387189724 1638,159 C 1699.3875245622846,173.72042612810276 1745.6937622811424,180.36021306405138 1792,187 C 1792,187 1792,938 1792,938 Z" stroke="none" stroke-width="0" fill="url(#linear-gradient)" class="transition-all duration-300 ease-in-out delay-150"/><defs><linearGradient id="linear-gradient" x1="0" x2="0" y1="1" y2="0"><stop offset="0%" stop-color="#d10e0060"/><stop offset="100%" stop-color="#2a3d9260"/></linearGradient></defs><path transform="scale(1, 1)" style="transform-origin:center" d="M 0,938 V 0,281 C 53.42281494796761,304.61542731766633 106.84562989593522,328.2308546353327 173,312 C 239.15437010406478,295.7691453646673 318.0402953642268,239.69200877633563 388,232 C 457.9597046357732,224.30799122366437 518.9931886471578,265.0011102593249 562,277 C 605.0068113528422,288.9988897406751 629.9869500471419,272.303550186365 687,280 C 744.0130499528581,287.696449813635 833.0590111642746,319.78468899521533 908,322 C 982.9409888357254,324.21531100478467 1043.7770052957605,296.5576938327738 1089,272 C 1134.2229947042395,247.4423061672262 1163.8329676526828,225.98453567368946 1227,234 C 1290.1670323473172,242.01546432631054 1386.8911240935086,279.50416347246824 1452,282 C 1517.1088759064914,284.49583652753176 1550.6025359732832,251.99881043643762 1602,246 C 1653.3974640267168,240.00118956356238 1722.6987320133585,260.50059478178116 1792,281 C 1792,281 1792,938 1792,938 Z" stroke="none" stroke-width="0" fill="url(#linear-gradient)" class="transition-all duration-300 ease-in-out delay-150"/><defs><linearGradient id="linear-gradient" x1="0" x2="0" y1="1" y2="0"><stop offset="0%" stop-color="#d10e0070"/><stop offset="100%" stop-color="#2a3d9270"/></linearGradient></defs><path transform="scale(1, 1)" d="M 0,938 V 0,422 C 44.723959572462036,413.22373047133146 89.44791914492407,404.447460942663 148,426 C 206.55208085507593,447.552539057337 278.9322829927657,499.4338867006794 337,485 C 395.0677170072343,470.5661132993206 438.82294888401316,389.8169922546195 509,382 C 579.1770511159868,374.1830077453805 675.7759214711817,439.29814428084273 741,456 C 806.2240785288183,472.70185571915727 840.07336523126,440.99043062200957 882,420 C 923.92663476874,399.00956937799043 973.9306176037783,388.740133231119 1043,394 C 1112.0693823962217,399.259866768881 1200.2041643536265,420.0490364535144 1269,440 C 1337.7958356463735,459.9509635464856 1387.2527249817158,479.063720954823 1439,485 C 1490.7472750182842,490.936279045177 1544.7849357195096,483.6960797271934 1604,471 C 1663.2150642804904,458.3039202728066 1727.6075321402452,440.1519601364033 1792,422 C 1792,422 1792,938 1792,938 Z" stroke="none" stroke-width="0" fill="url(#linear-gradient)" class="transition-all duration-300 ease-in-out delay-150" style="transform-origin: center center;"/><defs><linearGradient id="linear-gradient" x1="0" x2="0" y1="1" y2="0"><stop offset="0%" stop-color="#d10e0080"/><stop offset="100%" stop-color="#2a3d9280"/></linearGradient></defs><path transform="scale(1, 1)" d="M 0,938 V 0,633 C 52.80243111545815,626.8121811308785 105.6048622309163,620.6243622617569 165,616 C 224.3951377690837,611.3756377382431 290.3829821917929,608.3147320838509 345,624 C 399.6170178082071,639.6852679161491 442.8632090019121,674.1167094028392 511,657 C 579.1367909980879,639.8832905971608 672.1641818005586,571.2184303047926 735,563 C 797.8358181994414,554.7815696952074 830.4800637958532,607.0095693779905 882,624 C 933.5199362041468,640.9904306220095 1003.9155630160283,622.7432921832456 1061,627 C 1118.0844369839717,631.2567078167544 1161.8576841400336,658.0172618890269 1221,664 C 1280.1423158599664,669.9827381109731 1354.653700423837,655.1876602606466 1420,637 C 1485.346299576163,618.8123397393534 1541.527514164618,597.2320970683867 1602,596 C 1662.472485835382,594.7679029316133 1727.236242917691,613.8839514658066 1792,633 C 1792,633 1792,938 1792,938 Z" stroke="none" stroke-width="0" fill="url(#linear-gradient)" class="transition-all duration-300 ease-in-out delay-150" style="transform-origin: center center;"/><defs><linearGradient id="linear-gradient" x1="0" x2="0" y1="1" y2="0"><stop offset="0%" stop-color="#d10e0090"/><stop offset="100%" stop-color="#2a3d9290"/></linearGradient></defs><path transform="scale(1, 1)" d="M 0,938 V 0,949 C 71.67909980878866,917.2629992862619 143.35819961757733,885.5259985725237 194,887 C 244.64180038242267,888.4740014274763 274.2463013384794,923.159004996167 338,924 C 401.7536986615206,924.840995003833 499.6565950285054,891.8379814428082 568,898 C 636.3434049714946,904.1620185571918 675.1273185474988,949.4890692325996 730,942 C 784.8726814525012,934.5109307674004 855.8341307814993,874.2057416267941 911,896 C 966.1658692185007,917.7942583732059 1005.5361583265044,1021.6879642602238 1055,1016 C 1104.4638416734956,1010.3120357397762 1164.0212359124835,895.0424013323112 1233,886 C 1301.9787640875165,876.9575986676888 1380.3788980235622,974.1424304105316 1444,990 C 1507.6211019764378,1005.8575695894684 1556.463171993268,940.3878770255624 1612,920 C 1667.536828006732,899.6121229744376 1729.7684140033662,924.3060614872188 1792,949 C 1792,949 1792,938 1792,938 Z" stroke="none" stroke-width="0" fill="url(#linear-gradient)" class="transition-all duration-300 ease-in-out delay-150" style="transform-origin: center center;"/><defs><linearGradient id="linear-gradient" x1="0" x2="0" y1="1" y2="0"><stop offset="0%" stop-color="#d10e00ff"/><stop offset="100%" stop-color="#2a3d92ff"/></linearGradient></defs><path transform="scale(1, 1)" d="M 0,938 V 0,1424 C 50.19234361644946,1419.09993655661 100.38468723289893,1414.19987311322 168,1399 C 235.61531276710107,1383.80012688678 320.6535946848538,1358.3004441037297 388,1366 C 455.3464053151462,1373.6995558962703 505.00093402768596,1414.5983504718604 559,1435 C 612.999065972314,1455.4016495281396 671.3426692044023,1455.306154008829 732,1445 C 792.6573307955977,1434.693845991171 855.628389154705,1414.177033492823 914,1403 C 972.371610845295,1391.822966507177 1026.143774176778,1389.985712019879 1084,1401 C 1141.856225823222,1412.014287980121 1203.7965141381833,1435.8801184276613 1267,1423 C 1330.2034858618167,1410.1198815723387 1394.670169270489,1360.4938142694757 1454,1368 C 1513.329830729511,1375.5061857305243 1567.5228087798603,1440.1446244944354 1623,1459 C 1678.4771912201397,1477.8553755055646 1735.2385956100698,1450.9276877527823 1792,1424 C 1792,1424 1792,938 1792,938 Z" stroke="none" stroke-width="0" fill="url(#linear-gradient)" class="transition-all duration-300 ease-in-out delay-150" style="transform-origin: center center;"/></svg>