<svg class="canvas" viewBox="0 0 1920 1080" preserveAspectRatio="xMaxYMid slice" xmlns="http://www.w3.org/2000/svg" version="1.1" xmlns:xlink="http://www.w3.org/1999/xlink" xmlns:svgjs="http://svgjs.dev/svgjs"><rect width="1920" height="1080" fill="hsl(275, 65%, 15%)"></rect><defs><linearGradient x1="0.5" y1="0" x2="0" y2="1" id="SvgjsLinearGradient1035"><stop stop-color="#4e288a" offset="0"></stop><stop stop-color="#14060e" offset="0.1"></stop></linearGradient><linearGradient x1="0.5" y1="0" x2="0" y2="1" id="SvgjsLinearGradient1036"><stop stop-color="#282a8a" offset="0"></stop><stop stop-color="#140614" offset="0.22857142857142856"></stop></linearGradient><linearGradient x1="0.5" y1="0" x2="0" y2="1" id="SvgjsLinearGradient1037"><stop stop-color="#4e288a" offset="0"></stop><stop stop-color="#14060e" offset="0.3571428571428571"></stop></linearGradient><linearGradient x1="0.5" y1="0" x2="0" y2="1" id="SvgjsLinearGradient1038"><stop stop-color="#c0c1f2" offset="0"></stop><stop stop-color="#d442d7" offset="0.48571428571428565"></stop></linearGradient><linearGradient x1="0.5" y1="0" x2="0" y2="1" id="SvgjsLinearGradient1039"><stop stop-color="#d3c0f2" offset="0"></stop><stop stop-color="#d7429e" offset="0.6142857142857142"></stop></linearGradient><linearGradient x1="0.5" y1="0" x2="0" y2="1" id="SvgjsLinearGradient1040"><stop stop-color="#c0c1f2" offset="0"></stop><stop stop-color="#d442d7" offset="0.7428571428571429"></stop></linearGradient><linearGradient x1="0.5" y1="0" x2="0" y2="1" id="SvgjsLinearGradient1041"><stop stop-color="#ddc0f2" offset="0"></stop><stop stop-color="#d74280" offset="0.8714285714285713"></stop></linearGradient></defs><path d="M0,-509.3071298281301C42.74025307035334,-490.4752990916651,169.10037164664567,-416.9426130403931,256.44151842212005,-396.31614540934015C343.78266519759444,-375.6896777782872,434.6146715553282,-402.95687873666213,524.0468806528464,-385.5483240418124C613.4790897503647,-368.1397693469627,693.8576382816805,-316.667227233057,793.0347730072294,-291.8648172402419C892.2119077327784,-267.0624072474268,1026.8188490187806,-266.32247583373567,1119.1096890061406,-236.7338640849218C1211.4005289935005,-207.14525233610794,1257.5122874214107,-150.31097501148844,1346.779812931389,-114.33314674735877C1436.0473384413672,-78.3553184832291,1559.1781442212414,-45.03789732001523,1654.7148420660099,-20.866894500143793C1750.2515399107783,3.30410831972765,1875.7858070110017,22.099576059867605,1920,30.692870171869885L 1920 1080 L 0 1080 Z" fill="url(&quot;#SvgjsLinearGradient1035&quot;)"></path><path d="M0,-430.30291731462853C31.05217382696514,-423.01092204727536,110.5061426984767,-419.34803039500645,186.31304296179084,-386.5509457105093C262.119943225105,-353.7538610260122,375.2697355893173,-252.16806317004156,454.84140157988486,-233.52040920764566C534.4130675704524,-214.87275524524975,581.5160753481773,-284.2499547772657,663.7430389051964,-274.66502193613394C745.9700024622155,-265.08008909500217,860.8877875645389,-208.67378521207814,948.2031829219995,-176.01081216085507C1035.5185782794601,-143.347839109632,1109.637144454188,-105.52336872366936,1187.6354110499603,-78.68718362879545C1265.6336776457326,-51.85099853392154,1337.4964733809434,-45.177364185891065,1416.1927824966335,-14.993701591611618C1494.8890916123237,15.189961002667825,1575.8453961602077,79.25204217643166,1659.813265744102,102.41479193688122C1743.7811353279963,125.57754169733077,1876.6355442906836,120.388129465385,1920,123.98279697108576L 1920 1080 L 0 1080 Z" fill="url(&quot;#SvgjsLinearGradient1036&quot;)"></path><path d="M0,-283.3221570458045C77.92012797482586,-263.25102452974716,307.9203660937228,-212.57213458892824,467.5207678489552,-162.89536194946052C627.1211696041876,-113.21858930999281,791.7060155429342,-42.29916209928156,957.6024105313944,14.738478791001839C1123.4988055198546,71.77611968128524,1302.499539534949,134.2453512698028,1462.8991377797165,179.33048339223984C1623.298736024484,224.4156155146769,1843.8165229632862,267.59614017006004,1920,285.24927152562407L 1920 1080 L 0 1080 Z" fill="url(&quot;#SvgjsLinearGradient1037&quot;)"></path><path d="M0,-122.86010710728058C59.920238475660064,-98.46102695309749,233.79725332812757,-18.958362710880422,359.5214308539604,23.534373817818C485.2456083797932,66.02711034651642,619.2249254722149,96.19238118501843,754.3450651549971,132.09631206490994C889.4652048377793,168.00024294480144,1047.2233121001761,211.24885556969912,1170.2422689506536,238.95795909716708C1293.261225801131,266.66706262463504,1367.4991844163044,261.51108712093526,1492.458806257862,298.3509332297178C1617.4184280994198,335.1907793385003,1848.7431343763103,433.0560186631716,1920,459.99703574986233L 1920 1080 L 0 1080 Z" fill="url(&quot;#SvgjsLinearGradient1038&quot;)"></path><path d="M0,0.6338148593344926C51.72134825763943,19.75842088031244,217.53196317832925,80.18154062730221,310.3280895458366,115.38145098520218C403.1242159133439,150.58136134310215,465.3367402133776,180.0802567836156,556.7767582050441,211.83327700673436C648.2167761967105,243.58629722985313,767.1367561779671,293.90165899739355,858.9681974958353,305.89957232391475C950.7996388137035,317.89748565043595,1022.7798984036357,264.53044075098035,1107.7654061122535,283.82075696586145C1192.7509138208711,303.11107318074255,1270.5382219937435,383.46065771484564,1368.881243747542,421.64146961320125C1467.2242655013404,459.82228151155687,1605.9704105929673,483.54976129116324,1697.8235366350436,512.905628355995C1789.67666267712,542.2614954208267,1882.9705894391739,583.6314980611589,1920,597.7766720021917L 1920 1080 L 0 1080 Z" fill="url(&quot;#SvgjsLinearGradient1039&quot;)"></path><path d="M0,74.519488621474C53.45112531093407,89.11242150461696,213.2407528054303,130.48972539714944,320.7067518656044,162.0770859203318C428.17275092577853,193.66444644351415,542.9907395285461,222.8773751556215,644.7959943610446,264.04365176056814C746.601249193543,305.20992836551477,823.7762980053262,373.0366576913159,931.5382808605954,409.0747455500116C1039.3002637158645,445.1128334087073,1187.4582369798945,449.31361561293755,1291.367891492659,480.2721789127421C1395.2775460054236,511.23074221254666,1450.2241898526252,560.5468118259552,1554.996207937182,594.826125348839C1659.7682260217387,629.1054388717229,1859.166034656197,670.7610709331777,1920,685.9480600500455L 1920 1080 L 0 1080 Z" fill="url(&quot;#SvgjsLinearGradient1040&quot;)"></path><path d="M0,233.8799919400016C90.03563599751332,257.632252134317,379.94804188831745,319.78387893724835,540.2138159850799,376.39355310589417C700.4795900818424,433.00322727454,815.2139146041709,514.8430591914416,961.5946445805749,573.5380369518764C1107.975374556979,632.2330147123112,1258.7639699402664,680.887379551434,1418.498195843504,728.5634196685025C1578.2324217467415,776.2394597855711,1836.4163659739174,837.7558013233232,1920,859.5942776542873L 1920 1080 L 0 1080 Z" fill="url(&quot;#SvgjsLinearGradient1041&quot;)"></path></svg>