<svg class="canvas" viewBox="0 0 1920 1080" preserveAspectRatio="xMaxYMid slice" xmlns="http://www.w3.org/2000/svg" version="1.1" xmlns:xlink="http://www.w3.org/1999/xlink" xmlns:svgjs="http://svgjs.dev/svgjs"><rect width="1920" height="1080" fill="hsl(217, 65%, 15%)"></rect><defs><linearGradient x1="0.5" y1="0" x2="0" y2="1" id="SvgjsLinearGradient1049"><stop stop-color="#283a8a" offset="0"></stop><stop stop-color="#110614" offset="0.1"></stop></linearGradient><linearGradient x1="0.5" y1="0" x2="0" y2="1" id="SvgjsLinearGradient1050"><stop stop-color="#28618a" offset="0"></stop><stop stop-color="#0c0614" offset="0.22857142857142856"></stop></linearGradient><linearGradient x1="0.5" y1="0" x2="0" y2="1" id="SvgjsLinearGradient1051"><stop stop-color="#28618a" offset="0"></stop><stop stop-color="#0c0614" offset="0.3571428571428571"></stop></linearGradient><linearGradient x1="0.5" y1="0" x2="0" y2="1" id="SvgjsLinearGradient1052"><stop stop-color="#c0e7f2" offset="0"></stop><stop stop-color="#6242d7" offset="0.48571428571428565"></stop></linearGradient><linearGradient x1="0.5" y1="0" x2="0" y2="1" id="SvgjsLinearGradient1053"><stop stop-color="#c0ddf2" offset="0"></stop><stop stop-color="#8042d7" offset="0.6142857142857142"></stop></linearGradient><linearGradient x1="0.5" y1="0" x2="0" y2="1" id="SvgjsLinearGradient1054"><stop stop-color="#c0c9f2" offset="0"></stop><stop stop-color="#bb42d7" offset="0.7428571428571429"></stop></linearGradient><linearGradient x1="0.5" y1="0" x2="0" y2="1" id="SvgjsLinearGradient1055"><stop stop-color="#c0d3f2" offset="0"></stop><stop stop-color="#9e42d7" offset="0.8714285714285713"></stop></linearGradient></defs><path d="M0,-548.1135953403326C52.86757788247272,-528.2189438849477,213.41685906339046,-459.6793005122199,317.20546729483635,-428.74568660802373C420.99407552628224,-397.81207270382754,517.0880211174926,-382.24761577923266,622.7316493886755,-362.51191191515534C728.3752776598583,-342.776208051078,832.6064828376435,-331.6055743699743,951.0672369219333,-310.33146342355985C1069.527991006223,-289.0573524771454,1217.3261203604307,-261.5872153840079,1333.496173894414,-234.86724623666862C1449.6662274283972,-208.14727708932932,1550.3369204415685,-187.8039236889134,1648.0875581258329,-150.01164853952406C1745.8381958100972,-112.21937339013473,1874.6812596876389,-31.763270873531177,1920,-8.113595340332601L 1920 1080 L 0 1080 Z" fill="url(&quot;#SvgjsLinearGradient1049&quot;)"></path><path d="M0,-379.51725607167157C47.68460308147494,-356.73063711847294,192.9646466485646,-266.03170038647767,286.10761848884965,-242.7975423524797C379.2505903291347,-219.56338431848172,459.31869294191523,-248.95668424101882,558.8578310417101,-240.11230786768368C658.396969141505,-231.26793149434855,787.1365748267009,-227.30125890349282,883.3424470876191,-189.73128411246878C979.5483193485373,-152.16130932144475,1049.1323613132904,-52.26581011462943,1136.0930646072195,-14.6924591215394C1223.0537679011486,22.88089187155063,1326.2244201467975,19.225698007283157,1405.1066668511944,35.708821846071416C1483.9889135555914,52.191945684859675,1523.5709893088,61.02967784986161,1609.386544833601,84.20628391119016C1695.2021003584018,107.3828899725187,1868.2310908056002,159.67476249690063,1920,174.7684582140427L 1920 1080 L 0 1080 Z" fill="url(&quot;#SvgjsLinearGradient1050&quot;)"></path><path d="M0,-315.801947840227C40.45186166834046,-294.4663357327227,147.1695701170803,-222.68576385170252,242.7111700100428,-187.78827519520132C338.2527699030053,-152.89078653870013,471.3400374824271,-128.24022338209886,573.2495993577749,-106.41701590121983C675.1591612331226,-84.59380842034079,771.578013866265,-82.41732687707002,854.1685412621293,-56.849030309927095C936.7590686579937,-31.28073374278416,987.6270275612724,23.307299080064677,1068.7927637329608,46.99276350163776C1149.9584999046492,70.67822792321084,1243.5369871638572,71.9968033527986,1341.1629582922596,85.2637562195114C1438.788929420662,98.53070908622419,1558.0757502187523,98.67685994996616,1654.5485905033756,126.59448070191453C1751.021430787999,154.5121014538629,1875.7580984172293,231.74031405965377,1920,252.7694807312016L 1920 1080 L 0 1080 Z" fill="url(&quot;#SvgjsLinearGradient1051&quot;)"></path><path d="M0,-147.69707552515982C50.646929897921986,-138.19667032423592,218.07036877694622,-112.18515447868728,303.88157938753193,-90.69464431961649C389.69278999811763,-69.20413416054569,430.78468561696667,-45.52651615461542,514.8672636635141,-18.754014570735023C598.9498417100615,8.018487013145375,705.6037983591388,44.608978867990956,808.3770476668165,69.9403651836659C911.1502969744942,95.27175149934085,1031.0410974496795,102.01560861208895,1131.5067595095802,133.23430332331466C1231.972421569481,164.45299803454037,1325.078951867526,229.1284872453686,1411.1710200262203,257.25253345102016C1497.2630881849145,285.3765796566717,1563.254338466116,272.3273249103969,1648.059168461746,301.97858055722406C1732.8639984573758,331.62983620405123,1874.6765280769578,412.96315286952324,1920,435.16006733198304L 1920 1080 L 0 1080 Z" fill="url(&quot;#SvgjsLinearGradient1052&quot;)"></path><path d="M0,-51.72684050680583C49.484199438144195,-34.51943674885419,203.50916317413157,23.841678528129194,296.90519662886516,51.51758204090402C390.30123008359874,79.19348555367884,481.9213833777888,86.58854612893711,560.3762007284016,114.32858056984311C638.8310180790145,142.0686150107491,688.3941355581862,185.31362194944901,767.634100732542,217.95778868634C846.8740659068978,250.60195542323098,944.1504444222846,277.9601097592892,1035.8159917745363,310.1935809911889C1127.481539126788,342.42705222308865,1212.6638335979687,380.3546783174175,1317.6273848460519,411.35861607773836C1422.590936094135,442.3625538380592,1565.2018634040435,473.8743074600621,1665.5972992630348,496.21720755311424C1765.992735122026,518.5601076461664,1877.5995498771724,537.2162151222285,1920,545.4160166360514L 1920 1080 L 0 1080 Z" fill="url(&quot;#SvgjsLinearGradient1053&quot;)"></path><path d="M0,111.05738254301782C51.59277466888511,129.66513674656636,213.18946156885204,187.62099682207838,309.5566480133107,222.703907764309C405.9238344577693,257.78681870653963,494.48929660523845,293.11168600649836,578.2031186667518,321.5548481964016C661.9169407282652,349.9980103863049,721.5797947087649,372.59829879734633,811.839580382391,393.36288090372847C902.0993660560171,414.1274630101106,1021.640199138298,418.0751194487715,1119.7618327085083,446.1423408346943C1217.8834662787187,474.20956222061716,1317.5494074447156,530.5165278397355,1400.569381803653,561.7662092192656C1483.5893561625903,593.0158905987957,1531.309909162741,606.8538049864876,1617.881678862132,633.6404291118749C1704.4534485615231,660.4270532372623,1869.646946477022,707.6783664949703,1920,722.4859539715893L 1920 1080 L 0 1080 Z" fill="url(&quot;#SvgjsLinearGradient1054&quot;)"></path><path d="M0,185.9284385728577C66.25953618192356,203.94121421212785,262.7084470809009,253.1555119516702,397.55721709154136,294.0050924084786C532.4059871021818,334.85467286528706,681.3612182084587,385.09925224573624,809.0926200638429,431.0259213137082C936.8240219192271,476.9525903816801,1036.1982545875749,521.6007891304996,1163.9456282238464,569.5651068163103C1291.6930018601179,617.529424502121,1449.5677999187797,678.4655578501003,1575.576861881472,718.8118274285724C1701.5859238441644,759.1580970070446,1862.596143646912,796.1709081440483,1920,811.6427242871434L 1920 1080 L 0 1080 Z" fill="url(&quot;#SvgjsLinearGradient1055&quot;)"></path></svg>