<svg style="object-fit:cover" id="my-svg" version="1" baseProfile="full" width="100%" height="100%" viewBox="0 0 1792 938" xmlns="http://www.w3.org/2000/svg"><rect width="1792" height="938" fill="#121212"/><defs><linearGradient id="linear-gradient" x1="0" x2="0" y1="1" y2="0"><stop offset="0%" stop-color="#fb04da50"/><stop offset="100%" stop-color="#912a9250"/></linearGradient></defs><path transform="scale(1, 1)" style="transform-origin:center" d="M 0,938 V 0,187 C 50.98969485491729,189.8877712865791 101.97938970983458,192.77554257315816 167,191 C 232.02061029016542,189.22445742684184 311.0721360155789,182.7856009939464 365,204 C 418.9278639844211,225.2143990060536 447.7320662278498,274.08205345105614 506,255 C 564.2679337721502,235.9179465489439 651.9995990730216,148.88618520182928 719,136 C 786.0004009269784,123.11381479817072 832.2695374800638,184.3732057416268 888,209 C 943.7304625199362,233.6267942583732 1008.9222510067232,221.62099183166356 1066,196 C 1123.0777489932768,170.37900816833644 1172.0414584930434,131.14282693171904 1231,140 C 1289.9585415069566,148.85717306828096 1358.9119150211038,205.80770044146027 1422,220 C 1485.0880849788962,234.19229955853973 1542.3108814225418,205.62637130243994 1603,193 C 1663.6891185774582,180.37362869756006 1727.8445592887292,183.68681434878005 1792,187 C 1792,187 1792,938 1792,938 Z" stroke="none" stroke-width="0" fill="url(#linear-gradient)" class="transition-all duration-300 ease-in-out delay-150"/><defs><linearGradient id="linear-gradient" x1="0" x2="0" y1="1" y2="0"><stop offset="0%" stop-color="#fb04da60"/><stop offset="100%" stop-color="#912a9260"/></linearGradient></defs><path transform="scale(1, 1)" style="transform-origin:center" d="M 0,938 V 0,281 C 73.59848705138035,283.3616008882075 147.1969741027607,285.7232017764149 210,302 C 272.8030258972393,318.2767982235851 324.81059064033764,348.4687937825478 369,332 C 413.18940935966236,315.5312062174522 449.56066333588865,252.401623093394 510,229 C 570.4393366641114,205.598376906606 654.9467560161077,221.9247138438764 719,233 C 783.0532439838923,244.0752861561236 826.6523125996811,249.8995215311005 887,236 C 947.3476874003189,222.1004784688995 1024.4439935851683,188.47720003172168 1092,217 C 1159.5560064148317,245.52279996827832 1217.5717130596458,336.1916783420128 1269,351 C 1320.4282869403542,365.8083216579872 1365.269154176249,304.75608660022726 1423,268 C 1480.730845823751,231.2439133997727 1551.3516702353572,218.78397525707794 1615,225 C 1678.6483297646428,231.21602474292206 1735.3241648823214,256.10801237146103 1792,281 C 1792,281 1792,938 1792,938 Z" stroke="none" stroke-width="0" fill="url(#linear-gradient)" class="transition-all duration-300 ease-in-out delay-150"/><defs><linearGradient id="linear-gradient" x1="0" x2="0" y1="1" y2="0"><stop offset="0%" stop-color="#fb04da70"/><stop offset="100%" stop-color="#912a9270"/></linearGradient></defs><path transform="scale(1, 1)" d="M 0,938 V 0,422 C 55.82114691550575,455.868354965767 111.6422938310115,489.736709931534 164,487 C 216.3577061689885,484.263290068466 265.25197159145984,444.921515239631 328,415 C 390.74802840854016,385.078484760369 467.3498198031492,364.5772291099421 528,381 C 588.6501801968508,397.4227708900579 633.3487491959432,450.7695683206006 695,446 C 756.6512508040568,441.2304316793994 835.2551834130782,378.3444976076555 901,363 C 966.7448165869218,347.6555023923445 1019.6305171517442,379.8524412487773 1077,398 C 1134.3694828482558,416.1475587512227 1196.2227479799449,420.24573739723496 1254,425 C 1311.7772520200551,429.75426260276504 1365.4784909284763,435.16460916228294 1417,446 C 1468.5215090715237,456.83539083771706 1517.8632883061496,473.09582595363344 1580,470 C 1642.1367116938504,466.90417404636656 1717.0683558469252,444.45208702318325 1792,422 C 1792,422 1792,938 1792,938 Z" stroke="none" stroke-width="0" fill="url(#linear-gradient)" class="transition-all duration-300 ease-in-out delay-150" style="transform-origin: center center;"/><defs><linearGradient id="linear-gradient" x1="0" x2="0" y1="1" y2="0"><stop offset="0%" stop-color="#fb04da80"/><stop offset="100%" stop-color="#912a9280"/></linearGradient></defs><path transform="scale(1, 1)" d="M 0,938 V 0,633 C 70.64647933243454,668.1303365143144 141.29295866486908,703.2606730286288 193,697 C 244.70704133513092,690.7393269713712 277.47464467295816,643.087644399799 334,612 C 390.52535532704184,580.912355600201 470.8084626432983,566.3887493721749 533,582 C 595.1915373567017,597.6112506278251 639.2915047538485,643.3573581115018 695,641 C 750.7084952461515,638.6426418884982 818.0255183413078,588.1818181818181 882,600 C 945.9744816586922,611.8181818181819 1006.6064218809202,685.9153691612254 1075,693 C 1143.3935781190798,700.0846308387746 1219.5487941350111,640.1567051732799 1280,610 C 1340.4512058649889,579.8432948267201 1385.1984015790354,579.4578101456553 1434,595 C 1482.8015984209646,610.5421898543447 1535.657599548847,642.0120542440984 1596,651 C 1656.342400451153,659.9879457559016 1724.1712002255765,646.4939728779508 1792,633 C 1792,633 1792,938 1792,938 Z" stroke="none" stroke-width="0" fill="url(#linear-gradient)" class="transition-all duration-300 ease-in-out delay-150" style="transform-origin: center center;"/><defs><linearGradient id="linear-gradient" x1="0" x2="0" y1="1" y2="0"><stop offset="0%" stop-color="#fb04da90"/><stop offset="100%" stop-color="#912a9290"/></linearGradient></defs><path transform="scale(1, 1)" d="M 0,938 V 0,949 C 74.80685893538467,969.4383277379789 149.61371787076934,989.8766554759576 203,981 C 256.38628212923066,972.1233445240424 288.35198745230736,933.9317058341484 340,922 C 391.64801254769264,910.0682941658516 462.9783323200013,924.3965211874489 527,927 C 591.0216676799987,929.6034788125511 647.734683267687,920.4822094160563 712,936 C 776.265316732313,951.5177905839437 848.0829346092504,991.6746411483253 910,986 C 971.9170653907496,980.3253588516747 1023.9335782953115,928.819225990642 1084,918 C 1144.0664217046885,907.180774009358 1212.1827522095043,937.0484548891063 1278,963 C 1343.8172477904957,988.9515451108937 1407.335412866672,1010.9869544529329 1465,987 C 1522.664587133328,963.0130455470671 1574.475596323808,893.003727299162 1628,879 C 1681.524403676192,864.996272700838 1736.762201838096,906.9981363504189 1792,949 C 1792,949 1792,938 1792,938 Z" stroke="none" stroke-width="0" fill="url(#linear-gradient)" class="transition-all duration-300 ease-in-out delay-150" style="transform-origin: center center;"/><defs><linearGradient id="linear-gradient" x1="0" x2="0" y1="1" y2="0"><stop offset="0%" stop-color="#fb04daff"/><stop offset="100%" stop-color="#912a92ff"/></linearGradient></defs><path transform="scale(1, 1)" d="M 0,938 V 0,1424 C 61.239926158943305,1396.8048322715376 122.47985231788661,1369.6096645430755 180,1378 C 237.5201476821134,1386.3903354569245 291.3205168873968,1430.366174099236 345,1451 C 398.6794831126032,1471.633825900764 452.2380801325261,1468.9256390599803 516,1463 C 579.7619198674739,1457.0743609400197 653.7271625824985,1447.9312696608422 724,1433 C 794.2728374175015,1418.0687303391578 860.8532695374802,1397.3492822966507 914,1399 C 967.1467304625198,1400.6507177033493 1006.8597592675815,1424.6716011525548 1059,1436 C 1111.1402407324185,1447.3283988474452 1175.7076933921946,1445.9643130931295 1240,1457 C 1304.2923066078054,1468.0356869068705 1368.30946716364,1491.4711464749266 1424,1470 C 1479.69053283636,1448.5288535250734 1527.0544379532457,1382.1511010071638 1587,1367 C 1646.9455620467543,1351.8488989928362 1719.4727810233771,1387.9244494964182 1792,1424 C 1792,1424 1792,938 1792,938 Z" stroke="none" stroke-width="0" fill="url(#linear-gradient)" class="transition-all duration-300 ease-in-out delay-150" style="transform-origin: center center;"/></svg>